#!OML:ASF H:\LiuWeirdWalks\Patient Classification 1\Patient 1\Session 1\male.ASF
:FULLY-SPECIFIED
:DEGREES
1007
root 2.1295 18.1139 8.03859 7.64333 8.53625 7.05665
lowerback 10.4394 -0.292896 0.875833
upperback 0.553467 0.184364 7.96154
thorax -5.32618 0.183731 7.96146
lowerneck -28.1503 1.20588 7.03872
upperneck 26.0896 5.06593 -19.6871
head 14.6044 0.130686 -8.48286
rclavicle -4.53229e-014 -3.18055e-014
rhumerus -26.079 -47.9244 -19.0248
rradius 29.4086
rwrist 5.20665
rhand -25.6761 1.74604
rfingers 7.12502
rthumb 0.858549 -28.232
lclavicle -4.53229e-014 -3.18055e-014
lhumerus -17.9245 34.4543 27.1847
lradius 40.7174
lwrist 8.57263
lhand -22.0101 -4.02087
lfingers 7.12502
lthumb 4.399 25.9134
rfemur -29.7243 -6.20661 5.80369
rtibia 27.6401
rfoot 1.23866 -17.1342
rtoes -3.06562
lfemur 6.68943 -0.940539 -26.2435
ltibia 14.8025
lfoot -4.02141 6.77946
ltoes -23.6501
1008
root 2.09947 18.1226 8.14403 7.74948 8.7713 7.16486
lowerback 10.4183 -0.371358 1.03816
upperback 0.505534 0.108793 8.06862
thorax -5.3558 0.145638 7.99775
lowerneck -28.1493 1.21136 7.05739
upperneck 26.0262 5.08798 -19.7873
head 14.5876 0.130372 -8.52166
rclavicle 1.59028e-015 2.22639e-014
rhumerus -26.1037 -48.0604 -18.9165
rradius 29.4707
rwrist 5.30071
rhand -25.8333 1.81104
rfingers 7.12502
rthumb 0.706769 -28.1675
lclavicle 1.59028e-015 2.22639e-014
lhumerus -17.985 34.2362 27.3108
lradius 40.7612
lwrist 8.63779
lhand -21.98 -4.07158
lfingers 7.12502
lthumb 4.4281 25.8621
rfemur -29.7001 -6.36749 5.84902
rtibia 28.1827
rfoot 1.35033 -17.0396
rtoes -2.27163
lfemur 6.85767 -1.07383 -26.0635
ltibia 14.8252
lfoot -3.60636 6.22929
ltoes -24.0912
1009
root 2.0678 18.1334 8.24955 7.83893 9.01941 7.25206
lowerback 10.4131 -0.452067 1.20611
upperback 0.455812 0.0324589 8.18002
thorax -5.39638 0.107324 8.03643
lowerneck -28.1586 1.20964 7.06591
upperneck 25.9898 5.10057 -19.8651
head 14.5815 0.126902 -8.5535
rclavicle 3.10104e-014 -3.81667e-014
rhumerus -26.127 -48.0928 -18.8331
rradius 29.5365
rwrist 5.35382
rhand -25.9885 1.8254
rfingers 7.12502
rthumb 0.556814 -28.1536
lclavicle 3.10104e-014 -3.81667e-014
lhumerus -18.019 34.0116 27.4421
lradius 40.8038
lwrist 8.70584
lhand -21.9616 -4.09889
lfingers 7.12502
lthumb 4.44581 25.8344
rfemur -29.6323 -6.43507 5.90749
rtibia 28.6972
rfoot 1.36465 -17.1206
rtoes -1.56179
lfemur 6.9864 -1.20505 -25.8393
ltibia 14.9173
lfoot -3.16158 5.62202
ltoes -24.5523
1010
root 2.03457 18.1465 8.35512 7.91551 9.28885 7.30462
lowerback 10.4071 -0.538763 1.39604
upperback 0.409883 -0.0487991 8.29935
thorax -5.43207 0.0659798 8.07186
lowerneck -28.1828 1.20386 7.06683
upperneck 25.9591 5.10327 -19.9197
head 14.5775 0.120577 -8.57621
rclavicle 1.59028e-015 3.18055e-014
rhumerus -26.1354 -48.0518 -18.7824
rradius 29.589
rwrist 5.40182
rhand -26.1209 1.82581
rfingers 7.12502
rthumb 0.428934 -28.1535
lclavicle 1.59028e-015 3.18055e-014
lhumerus -17.9993 33.8939 27.582
lradius 40.8047
lwrist 8.69488
lhand -21.9342 -4.1352
lfingers 7.12502
lthumb 4.4723 25.7976
rfemur -29.5202 -6.40142 5.99002
rtibia 29.1623
rfoot 1.29704 -17.3619
rtoes -1.01497
lfemur 7.06068 -1.33038 -25.5548
ltibia 15.0929
lfoot -2.69358 4.95938
ltoes -25.0321
1011
root 2.00071 18.1608 8.46108 7.98099 9.5774 7.34441
lowerback 10.3998 -0.635037 1.60348
upperback 0.372455 -0.141471 8.4149
thorax -5.4568 0.0181086 8.09439
lowerneck -28.2008 1.21744 7.11552
upperneck 25.883 5.11382 -20.0001
head 14.5563 0.120511 -8.61307
rclavicle 3.97569e-015 -3.81667e-014
rhumerus -26.1201 -47.8864 -18.7967
rradius 29.6451
rwrist 5.39534
rhand -26.1986 1.81607
rfingers 7.12502
rthumb 0.353963 -28.1634
lclavicle 3.97569e-015 -3.81667e-014
lhumerus -17.9426 33.8136 27.7181
lradius 40.7939
lwrist 8.70247
lhand -21.9557 -4.13165
lfingers 7.12502
lthumb 4.4515 25.8016
rfemur -29.3628 -6.29615 6.07439
rtibia 29.5744
rfoot 1.14617 -17.7224
rtoes -0.675228
lfemur 7.08785 -1.46612 -25.246
ltibia 15.3532
lfoot -2.20053 4.27047
ltoes -25.5164
1012
root 1.96595 18.1761 8.56732 8.03377 9.87593 7.34943
lowerback 10.3864 -0.735588 1.83751
upperback 0.339582 -0.236758 8.53787
thorax -5.47332 -0.0318447 8.10984
lowerneck -28.2464 1.22249 7.1289
upperneck 25.838 5.11764 -20.0362
head 14.5499 0.117723 -8.62856
rclavicle 1.19271e-014 -6.36111e-015
rhumerus -26.0982 -47.6825 -18.8296
rradius 29.6736
rwrist 5.4352
rhand -26.2065 1.83967
rfingers 7.12502
rthumb 0.346316 -28.1398
lclavicle 1.19271e-014 -6.36111e-015
lhumerus -17.8753 33.7601 27.8454
lradius 40.7891
lwrist 8.6803
lhand -21.9674 -4.19675
lfingers 7.12502
lthumb 4.44023 25.7367
rfemur -29.1658 -6.09145 6.18429
rtibia 29.9385
rfoot 0.90822 -18.2131
rtoes -0.525755
lfemur 7.06535 -1.60559 -24.8909
ltibia 15.6927
lfoot -1.68454 3.56984
ltoes -25.9863
1013
root 1.93167 18.1915 8.67397 8.07773 10.1829 7.34393
lowerback 10.3502 -0.841868 2.0948
upperback 0.318523 -0.339826 8.65489
thorax -5.46394 -0.0869891 8.10496
lowerneck -28.2687 1.24393 7.19037
upperneck 25.7345 5.12406 -20.1015
head 14.5161 0.119406 -8.65854
rclavicle -3.10104e-014 6.36111e-015
rhumerus -26.0692 -47.4955 -18.8811
rradius 29.6757
rwrist 5.50118
rhand -26.1523 1.87515
rfingers 7.12502
rthumb 0.398623 -28.1042
lclavicle -3.10104e-014 6.36111e-015
lhumerus -17.7565 33.8171 27.9671
lradius 40.7346
lwrist 8.5329
lhand -21.9422 -4.34392
lfingers 7.12502
lthumb 4.46458 25.589
rfemur -28.9333 -5.85026 6.30106
rtibia 30.2681
rfoot 0.601526 -18.7796
rtoes -0.526965
lfemur 7.00727 -1.75424 -24.5275
ltibia 16.0953
lfoot -1.14022 2.87097
ltoes -26.438
